<svg width="101" height="33" fill="none" xmlns="http://www.w3.org/2000/svg"><g clip-path="url(#clip0)"><path d="M.026 26L3.35 6.805l5.642.013c1.661 0 3.111.44 4.35 1.318 1.24.87 2.119 2.061 2.638 3.573.448 1.327.584 2.76.408 4.298l-.092.804c-.237 1.723-.809 3.283-1.714 4.68a9.875 9.875 0 01-3.494 3.296A9.564 9.564 0 016.473 26H.026zm7.225-15.623L5.155 22.44l1.318.014c1.547 0 2.786-.598 3.718-1.793.94-1.196 1.498-3.024 1.674-5.485l.027-.435c.061-1.406-.159-2.474-.66-3.203-.5-.73-1.252-1.112-2.254-1.147l-1.727-.014zm16.73 15.887c-1.275-.01-2.413-.308-3.415-.897a5.75 5.75 0 01-2.254-2.478c-.51-1.064-.712-2.233-.606-3.507l.04-.37c.236-2.346 1.05-4.2 2.438-5.563 1.397-1.37 3.107-2.03 5.128-1.977 1.222.017 2.268.33 3.138.936.87.597 1.508 1.428 1.912 2.491.404 1.055.536 2.242.395 3.56l-.25 1.806h-8.49c.017.747.228 1.354.632 1.82.405.465.994.711 1.767.738 1.257.035 2.386-.448 3.388-1.45l1.82 2.412c-.537.765-1.288 1.367-2.255 1.806-.958.431-2.008.655-3.15.673h-.238zm1.055-11.378a2.248 2.248 0 00-1.609.58c-.448.405-.84 1.081-1.173 2.03h4.337l.08-.382c.052-.307.06-.597.026-.87-.15-.879-.703-1.331-1.661-1.358zm15.069 9.558c-1.064 1.257-2.347 1.868-3.85 1.833-1.398-.018-2.452-.506-3.164-1.463-.703-.959-.976-2.242-.818-3.85l1.543-9.229h4.337l-1.569 9.282a3.085 3.085 0 000 .698c.062.721.488 1.095 1.28 1.12.913.036 1.691-.324 2.333-1.08l1.766-10.02h4.364L43.85 26h-4.034l.29-1.556zm12.682-1.595c.624.018 1.112-.154 1.464-.514.351-.37.575-.844.672-1.424l4.06-.013c-.052 1.046-.364 1.982-.936 2.808-.562.826-1.327 1.468-2.294 1.925a6.796 6.796 0 01-3.084.633c-1.899-.035-3.362-.717-4.39-2.044-1.029-1.336-1.447-3.058-1.253-5.168l.04-.316c.158-1.442.562-2.716 1.212-3.823.65-1.117 1.503-1.978 2.558-2.584 1.063-.607 2.25-.893 3.56-.857 1.66.035 2.97.567 3.928 1.595.967 1.02 1.433 2.4 1.398 4.14l-4.06-.014c.043-1.511-.497-2.28-1.622-2.307-1.53-.052-2.409 1.235-2.637 3.863l-.119 1.345-.013.5c0 1.477.505 2.229 1.516 2.255zm14.225 3.415c-1.274-.01-2.412-.308-3.414-.897a5.75 5.75 0 01-2.255-2.478c-.51-1.064-.712-2.233-.606-3.507l.04-.37c.237-2.346 1.05-4.2 2.438-5.563 1.398-1.37 3.107-2.03 5.129-1.977 1.221.017 2.267.33 3.137.936.87.597 1.508 1.428 1.912 2.491.404 1.055.536 2.242.396 3.56l-.25 1.806h-8.491c.017.747.228 1.354.633 1.82.404.465.993.711 1.766.738 1.257.035 2.386-.448 3.388-1.45l1.82 2.412c-.536.765-1.288 1.367-2.255 1.806-.958.431-2.008.655-3.15.673h-.238zm1.055-11.378a2.248 2.248 0 00-1.608.58c-.449.405-.84 1.081-1.174 2.03h4.338l.079-.382c.052-.307.061-.597.026-.87-.15-.879-.703-1.331-1.661-1.358z" fill="#fff"/><path d="M97 27H81V13a5.006 5.006 0 015-5h11a5.007 5.007 0 015 5v9a5.01 5.01 0 01-5 5zm-2-8.942a2.237 2.237 0 102.334 2.236A2.288 2.288 0 0095 18.058zm-7-5.588a2.29 2.29 0 00-2.333 2.236A2.288 2.288 0 0088 16.941a2.288 2.288 0 002.333-2.235A2.288 2.288 0 0088 12.47z" fill="#F32F84"/></g><defs><clipPath id="clip0"><path fill="#fff" d="M0 0h101v33H0z"/></clipPath></defs></svg>